<svg xmlns="http://www.w3.org/2000/svg" width="70" height="71" fill="#D80B0C" viewBox="0 0 70 71"><path d="M21.013 62.106a29.482 29.482 0 0 0 5.582 2.268l7.096-30.846h31.414a31.13 31.13 0 0 0-.883-5.987H28.819l-7.806 34.565z"/><path d="M38.58 34.821l-6.876 30.574c1.86.208 3.706.24 5.677.096l7.08-30.67H38.58zM7.198 23.278h34l-.678 2.97h5.945l2.081-8.941H10.494a29.853 29.853 0 00-3.296 5.971z"/><path d="M35 0C15.92 0 .386 15.742.386 35.045c0 19.653 16.069 35.619 35.67 35.044 18.64-.575 33.559-16.077 33.559-35.028C69.63 15.726 54.097 0 35 0zm-3.296 65.395C11.614 63.16-.702 41.798 7.31 23.023 12.055 11.847 22.889 4.534 35 4.534c16.621 0 30.152 13.699 30.152 30.527 0 17.85-15.25 32.298-33.448 30.334z"/></svg>